<svg width="259" height="299" viewBox="0 0 259 299" fill="none" xmlns="http://www.w3.org/2000/svg">
<path d="M149.5 149.5C159.752 149.5 168.062 157.81 168.062 168.062L168.062 279.438C168.062 289.69 159.752 298 149.5 298L19.5625 298C9.31043 298 0.999994 289.69 0.999994 279.437L0.999999 168.062C1 157.81 9.31043 149.5 19.5625 149.5L149.5 149.5Z" stroke="black" stroke-opacity="0.1" stroke-width="2" stroke-linecap="round"/>
<path d="M279.438 0.999999C289.689 1 298 9.3108 298 19.5625L298 75.25C298 85.5017 289.689 93.8125 279.437 93.8125L19.5625 93.8125C9.31043 93.8125 0.999996 85.5017 0.999997 75.25L0.999999 19.5625C1 9.31079 9.31043 0.999987 19.5625 0.999988L279.438 0.999999Z" stroke="black" stroke-opacity="0.1" stroke-width="2" stroke-linecap="round"/>
<path d="M279.438 149.5C289.689 149.5 298 157.81 298 168.062L298 279.437C298 289.69 289.689 298 279.437 298L242.312 298C232.061 298 223.75 289.69 223.75 279.437L223.75 168.062C223.75 157.81 232.061 149.5 242.313 149.5L279.438 149.5Z" stroke="black" stroke-opacity="0.1" stroke-width="2" stroke-linecap="round"/>
</svg>
