<svg width="57" height="46" viewBox="0 0 57 46" fill="none" xmlns="http://www.w3.org/2000/svg">
<path d="M7.99707 45.9014H0L0.344727 45.3047H7.53418V44.709H0.688477L12.2422 24.6846H20.2461L7.99707 45.9014ZM55.9111 45.9014H47.8662L47.5215 45.3047H54.4248V44.709H47.1777L35.6172 24.6846H43.6465L55.9111 45.9014ZM27.8564 0.543945V11.5029L21.3916 22.7012H13.3867L25.9287 0.964844L26.249 1.14941L26.9141 0L27.8564 0.543945ZM29.6475 1.12988L29.9355 0.964844L38.9961 16.6387L48.0312 0.991211H56.1104L55.708 1.68555H48.2783V2.28027H55.3643L43.542 22.7012H34.4717L28.0547 11.5859V0.541992L28.9951 0L29.6475 1.12988ZM27.8564 13.2324L23.6338 19.1328L27.8564 11.8174V13.2324ZM32.2188 19.1328L28.0547 13.3154V11.9209L32.2188 19.1328ZM38.9893 16.2578L34.6973 8.82227L38.9893 14.8203L43.2822 8.82227L38.9893 16.2578Z" fill="url(#paint0_radial_28_1297)"/>
<defs>
<radialGradient id="paint0_radial_28_1297" cx="0" cy="0" r="1" gradientUnits="userSpaceOnUse" gradientTransform="translate(28.0552 22.8026) scale(32.665 39.3328)">
<stop offset="0.451923" stop-color="#2E1818"/>
<stop offset="0.995192" stop-color="#944C4C"/>
</radialGradient>
</defs>
</svg>
