<svg width="285" height="416" viewBox="0 0 285 416" fill="none" xmlns="http://www.w3.org/2000/svg">
<path d="M213.15 0.5C238.777 0.5002 259.799 20.4133 263.37 46.291L263.43 46.7227H360.15C377.863 46.7229 392.609 60.1456 395.731 77.833L395.795 78.1914L396.155 78.2412C421.122 81.6724 440.5 103.823 440.5 130.963C440.5 158.103 421.122 180.253 396.155 183.685L395.795 183.734L395.731 184.093C392.609 201.78 377.863 215.204 360.15 215.204H322.229L322.17 215.636C318.599 241.513 297.577 261.426 271.95 261.426C246.323 261.426 225.301 241.513 221.73 215.636L221.671 215.204H80.8496C70.7264 215.204 62.2572 222.26 59.4082 231.862L59.249 232.401L59.8018 232.497C83.9248 236.691 102.4 258.523 102.4 285.037C102.4 311.552 83.9247 333.384 59.8018 337.577L59.249 337.673L59.4082 338.212C62.2572 347.814 70.7264 354.87 80.8496 354.87H118.771L118.83 354.438C122.401 328.561 143.423 308.649 169.05 308.648C194.677 308.648 215.699 328.561 219.27 354.438L219.329 354.87H309.871L309.931 354.438C313.502 328.561 334.523 308.648 360.15 308.648C388.267 308.649 411.114 332.546 411.114 362.074C411.114 391.603 388.282 415.5 360.165 415.5C334.538 415.5 313.516 395.587 309.945 369.709L309.886 369.277H219.329L219.27 369.709C215.699 395.587 194.677 415.5 169.05 415.5C143.423 415.5 122.401 395.587 118.83 369.709L118.771 369.277H80.8496C63.1369 369.277 48.3909 355.854 45.2686 338.167L45.2051 337.809L44.8447 337.759L43.6777 337.584C19.2761 333.634 0.50003 311.753 0.5 285.037C0.5 257.897 19.8775 235.747 44.8447 232.315L45.2051 232.266L45.2686 231.907C48.3909 214.22 63.1369 200.796 80.8496 200.796H221.671L221.73 200.364C225.301 174.487 246.323 154.574 271.95 154.574C297.577 154.574 318.599 174.487 322.17 200.364L322.229 200.796H360.15C370.274 200.796 378.743 193.74 381.592 184.138L381.751 183.599L381.198 183.503C357.075 179.309 338.6 157.477 338.6 130.963C338.6 104.448 357.075 82.6165 381.213 78.4229L381.766 78.3271L381.606 77.7881C378.757 68.1858 370.288 61.13 360.165 61.1299H263.444L263.385 61.5615C259.814 87.4392 238.792 107.351 213.165 107.352C187.538 107.352 166.516 87.4393 162.945 61.5615L162.886 61.1299H131.129L131.069 61.5615C127.498 87.4393 106.477 107.352 80.8496 107.352C52.7327 107.351 29.9004 83.4544 29.9004 53.9258C29.9005 24.3972 52.7328 0.500222 80.8496 0.5C106.477 0.5 127.499 20.4131 131.069 46.291L131.129 46.7227H162.871L162.931 46.291C166.501 20.4131 187.523 0.5 213.15 0.5ZM169.05 338.463C156.595 338.463 146.5 349.079 146.5 362.074C146.5 375.07 156.595 385.685 169.05 385.686C181.505 385.686 191.6 375.07 191.6 362.074C191.6 349.079 181.505 338.463 169.05 338.463ZM360.15 338.463C347.695 338.463 337.6 349.079 337.6 362.074C337.6 375.07 347.696 385.686 360.15 385.686C372.605 385.685 382.7 375.07 382.7 362.074C382.7 349.079 372.605 338.463 360.15 338.463ZM51.4502 261.426C38.9953 261.426 28.9004 272.041 28.9004 285.037C28.9004 298.033 38.9953 308.648 51.4502 308.648C63.905 308.648 74 298.033 74 285.037C74 272.042 63.905 261.426 51.4502 261.426ZM271.95 184.389C259.495 184.389 249.4 195.004 249.4 208C249.4 220.996 259.495 231.611 271.95 231.611C284.405 231.611 294.5 220.996 294.5 208C294.5 195.004 284.405 184.389 271.95 184.389ZM389.55 107.352C377.095 107.352 367 117.967 367 130.963C367 143.958 377.095 154.574 389.55 154.574C402.005 154.574 412.1 143.959 412.1 130.963C412.1 117.967 402.005 107.352 389.55 107.352ZM80.8496 30.3145C68.3949 30.3147 58.2999 40.9303 58.2998 53.9258C58.2998 66.9213 68.3949 77.5369 80.8496 77.5371C93.3045 77.5371 103.4 66.9214 103.4 53.9258C103.4 40.9302 93.3045 30.3145 80.8496 30.3145ZM213.15 30.3145C200.696 30.3145 190.6 40.9302 190.6 53.9258C190.6 66.9214 200.695 77.5371 213.15 77.5371C225.605 77.5369 235.7 66.9213 235.7 53.9258C235.7 40.9303 225.605 30.3147 213.15 30.3145Z" stroke="black" stroke-opacity="0.1"/>
</svg>
